<svg width="197" height="197" viewBox="0 0 197 197" fill="none" xmlns="http://www.w3.org/2000/svg">
<path fill-rule="evenodd" clip-rule="evenodd" d="M168.371 24.7328C154.107 25.4864 135.484 30.9245 126.22 37.0414L125.438 37.5575L122.843 36.279C114.921 32.3779 107.621 32.0425 99.6963 35.2162L97.5495 36.0756L95.6711 34.9852C79.6235 25.6725 53.518 27.2485 34.1588 38.6991C31.7111 40.1471 32.0352 40.2505 35.7077 39.1941C56.8015 33.126 73.4657 36.8996 89.8118 51.447C91.1824 52.6669 92.9032 54.1971 93.6366 54.8472L94.9693 56.0302L96.5556 54.1016C104.765 44.123 117.23 42.8485 125.594 51.1318C129.508 55.0073 131.926 60.7119 131.926 66.0659C131.926 68.9194 132.099 68.7633 135.051 63.2449C139.581 54.7743 146.222 46.1925 151.986 41.3591L153.331 40.2313L152.29 42.4451C149.484 48.4162 148.693 53.5736 150.01 57.3235C150.651 59.1497 151.552 60.5425 151.731 59.984C151.804 59.7589 152.196 58.3716 152.604 56.9015C156.089 44.3368 163.691 34.4829 175.207 27.6012L179.629 24.9589L177.94 24.7786C176.219 24.5944 171.419 24.5718 168.371 24.7328ZM146.15 49.6115C140.676 55.9347 135.331 64.0614 133.024 69.5656C132.667 70.4166 131.759 72.1896 131.005 73.5056C129.932 75.3756 129.701 75.9898 129.943 76.3197C131.958 79.0713 131.842 82.639 129.64 85.6339C129.363 86.0112 129.909 86.7785 133.04 90.4092C149.892 109.955 152.354 119.732 145.127 138.42C141.5 147.798 141.06 152.934 143.178 161.148C144.679 166.969 144.731 166.925 144.731 159.854C144.731 150.708 145.58 147.352 150.675 136.338C157.733 121.085 158.09 112.978 152.255 100.382C148.071 91.3479 147.807 86.8159 150.979 78.4306C154.614 68.8175 154.529 66.1462 150.369 59.4339C148.591 56.5661 147.863 53.7101 148.038 50.2901C148.121 48.6634 148.171 47.3366 148.148 47.341C148.126 47.3455 147.227 48.3674 146.15 49.6115ZM23.2948 49.183C23.2948 49.2721 23.8808 50.2537 24.5974 51.3643C32.4375 63.5197 45.0633 71.5356 56.3691 71.5356H58.7055L58.8611 70.4802C59.1847 68.2851 59.6821 61.1118 59.5216 60.9513C59.4295 60.8592 58.6814 61.0183 57.8584 61.3049C50.5679 63.8452 33.9859 58.3952 25.3248 50.6112C23.6031 49.0643 23.2948 48.8476 23.2948 49.183ZM109.441 50.5925C107.797 51.0343 105.788 52.0415 104.498 53.0703L103.686 53.7174L105.916 56.4168C108.392 59.4152 108.318 59.3684 109.389 58.6065C109.81 58.3061 110.748 57.9111 111.472 57.7289L112.789 57.3974L112.791 56.0938C112.792 55.3772 112.874 53.7455 112.973 52.469L113.154 50.1468L112.057 50.1655C111.454 50.1759 110.277 50.3679 109.441 50.5925ZM114.105 50.6083C114.023 50.8964 113.874 52.335 113.774 53.8056C113.674 55.2762 113.535 56.6857 113.464 56.9389C113.367 57.2851 113.598 57.4462 114.399 57.5929C114.984 57.6998 115.998 58.0977 116.651 58.4775L117.839 59.1674L119.84 56.4587L121.841 53.7499L121.19 53.0575C119.562 51.3249 114.409 49.543 114.105 50.6083ZM174.194 52.2715C173.346 54.0164 173.44 54.2607 174.314 52.5817C174.704 51.8317 174.975 51.1692 174.917 51.1106C174.858 51.0515 174.533 51.5741 174.194 52.2715ZM122.076 55.2048C121.844 55.4983 120.902 56.5794 119.983 57.6072L118.313 59.4757L118.803 60.2288C119.072 60.643 119.489 61.4251 119.729 61.9668C119.969 62.5086 120.199 62.9878 120.239 63.0316C120.325 63.1252 126.57 64.2136 127.035 64.2166C128.177 64.2234 125.444 57.4993 123.405 55.2831C122.706 54.5237 122.619 54.5187 122.076 55.2048ZM102.257 55.5643C99.6633 59.5294 100.203 62.2924 104.154 65.2833C106.416 66.9947 106.305 67.0223 106.283 64.7529C106.267 63.0375 106.392 62.4825 107.103 61.104L107.941 59.4782L105.462 57.2048C102.662 54.6364 102.813 54.7138 102.257 55.5643ZM172.874 55.4939C172.769 55.8268 172.745 56.1627 172.823 56.24C172.9 56.3173 173.05 56.1085 173.156 55.7756C173.262 55.4427 173.284 55.1068 173.207 55.0295C173.13 54.9521 172.98 55.161 172.874 55.4939ZM76.9068 55.5234C74.0296 55.8027 62.4854 59.359 61.4798 60.2756C61.3527 60.3913 61.073 62.4972 60.8572 64.9553C60.6415 67.4134 60.41 69.8941 60.3421 70.4674C60.1919 71.739 59.6373 71.7986 68.0418 69.6439C71.3701 68.7909 75.4077 67.8167 77.0147 67.4784L79.9362 66.8642L81.8643 61.531C84.153 55.2018 84.0717 55.8431 82.606 55.6638C80.2007 55.3698 78.8355 55.3358 76.9068 55.5234ZM85.0646 56.6902C84.9947 56.8837 84.25 59.0049 83.4098 61.4039C82.5701 63.8033 81.7944 65.9881 81.6865 66.2589C81.5087 66.7052 81.7225 66.7514 83.9831 66.7544C86.1456 66.7574 88.2333 67.1036 89.7118 67.7039C90.0359 67.8354 96.8132 63.4025 97.8056 62.4101C98.2212 61.9944 91.4833 58.3006 88.0772 57.0773C85.7699 56.2484 85.2483 56.1814 85.0646 56.6902ZM111.162 61.0276C109.173 62.0082 108.292 64.7524 109.326 66.7455C110.638 69.2745 114.081 69.8123 116.091 67.802C119.453 64.4401 115.437 58.9207 111.162 61.0276ZM94.8122 65.7024C92.035 68.1827 91.6759 68.6008 92.1083 68.8529C92.3827 69.0125 93.6971 69.8463 95.0293 70.7057C96.3616 71.5651 97.6017 72.3591 97.7849 72.4704C98.0622 72.6378 101.366 70.0005 103.865 67.6158C104.345 67.1573 104.237 67.0332 101.562 64.973C98.1242 62.3254 98.6586 62.2672 94.8122 65.7024ZM120.304 65.6222L120.138 67.6L122.303 71.1037C124.713 75.0033 124.725 75.0097 125.795 73.0643C127.462 70.033 127.956 65.4759 126.649 65.1789C125.299 64.8711 121.39 63.9146 120.922 63.7767C120.548 63.6664 120.442 63.9836 120.304 65.6222ZM20.849 64.3589C18.1102 69.4292 16.1254 96.5881 17.9309 104.291C18.3978 106.283 22.5033 109.877 26.5315 111.821C35.2147 116.011 44.1255 113.531 56.7183 103.419C57.0862 103.124 56.9906 102.79 55.9839 100.855C54.5301 98.0597 53.123 94.8225 51.5593 90.6727C50.8881 88.8928 50.2212 87.463 50.0764 87.496C36.612 90.55 26.0858 82.3307 21.5277 65.2035C21.1957 63.9565 21.1184 63.8605 20.849 64.3589ZM101.971 70.4206C98.794 73.6952 98.7669 73.3386 102.365 75.6091C105.426 77.5406 104.984 77.617 107.616 74.7014C110.891 71.0746 110.745 71.3484 109.646 70.8884C109.131 70.6722 107.847 69.8434 106.794 69.0455C105.741 68.2482 104.842 67.5956 104.796 67.5956C104.75 67.5956 103.479 68.8667 101.971 70.4206ZM118.867 69.1332C118.447 69.6833 117.605 70.3881 116.994 70.6993L115.885 71.2657V75.615V79.9642L116.799 79.7869C119.031 79.3545 121.871 77.9164 123.037 76.6275C123.494 76.1237 123.432 75.9149 121.771 72.3389C119.636 67.7443 119.794 67.9182 118.867 69.1332ZM85.9875 70.5196C84.481 70.8668 83.1606 71.2386 83.0537 71.3455C82.8237 71.576 85.7004 75.8903 86.7278 76.8556L87.4414 77.5254L89.3503 76.532C90.4008 75.9858 92.0512 75.2545 93.019 74.9068C95.1603 74.137 95.1717 74.3581 92.8624 71.8872C90.6298 69.4996 90.5117 69.476 85.9875 70.5196ZM108.721 74.6497C107.553 76.3163 106.598 77.8046 106.598 77.9563C106.598 78.434 110.861 79.8204 112.358 79.8293L113.764 79.8377L114.525 76.3399C114.944 74.4162 115.354 72.5738 115.436 72.2458C115.579 71.674 115.487 71.6484 113.215 71.6341L110.844 71.6188L108.721 74.6497ZM78.2297 72.9392C75.0806 74.2695 71.4194 76.2547 71.4194 76.632C71.4194 77.4146 76.3212 85.3256 76.8059 85.3256C76.9241 85.3256 78.3346 84.2687 79.9396 82.9774C81.5452 81.686 83.6408 80.0982 84.5967 79.4491L86.3348 78.2691L84.9981 76.5202C84.2628 75.5583 83.2364 74.1064 82.7173 73.2943C81.592 71.5331 81.5639 71.5307 78.2297 72.9392ZM94.1369 77.7111C89.6803 80.6912 89.6764 80.6518 94.7777 83.9579C97.3052 85.5955 97.2688 85.592 98.1548 84.28C98.5419 83.7067 99.5983 82.4445 100.503 81.4742C102.438 79.3988 102.477 79.6746 99.9292 77.4919C97.4347 75.3549 97.6746 75.3456 94.1369 77.7111ZM122.823 78.0331C121.649 79.2624 119.313 80.5099 117.802 80.7128L116.483 80.8906L115.611 84.5854C115.132 86.6179 114.679 88.5653 114.603 88.9139C114.379 89.9536 118.835 89.5463 123.058 88.1407L124.891 87.531L124.86 84.247C124.828 80.7483 124.37 77.3968 123.906 77.2698C123.751 77.2279 123.263 77.5712 122.823 78.0331ZM65.7813 79.9963C61.3635 82.9148 58.0721 84.7499 55.1669 85.9136C53.7987 86.4613 52.8448 87.006 52.8448 87.2394C52.8448 88.2461 58.0983 100.44 58.9158 101.332C59.07 101.499 67.3715 94.1187 73.7681 88.1279L75.1333 86.8494L73.3288 84.1879C72.3364 82.7237 71.0471 80.6715 70.463 79.6264C69.1884 77.3471 69.8715 77.2934 65.7813 79.9963ZM104.029 81.5979C103.314 82.4873 102.197 84.0382 101.548 85.0439L100.368 86.8735L101.543 87.3897C103.121 88.0831 107.538 89.1848 109.232 89.3074L110.599 89.4064L111.689 86.0289C113.048 81.816 113.07 82.0716 111.312 81.652C110.499 81.4585 108.957 81.0024 107.885 80.639C105.347 79.7786 105.531 79.7328 104.029 81.5979ZM84.8883 85.5723C81.3162 89.0927 80.6843 89.8389 80.9197 90.2595C81.3408 91.0125 85.6526 94.7392 87.8374 96.2394C90.0822 97.7804 89.7655 97.9498 91.8527 94.0906C92.5521 92.7973 93.7878 90.7076 94.5984 89.4468C95.4096 88.186 96.1601 87.0104 96.267 86.8341C96.3857 86.6381 95.7272 86.0377 94.5698 85.2867C93.5297 84.6115 91.9532 83.4575 91.0667 82.7222C89.0598 81.0576 89.8305 80.702 84.8883 85.5723ZM98.9068 89.7714C97.4549 93.0066 95.3406 99.1422 95.3406 100.12C95.3406 101.055 107.188 104.247 107.924 103.511C107.987 103.449 108.226 101.965 108.455 100.214C108.684 98.463 109.137 95.8217 109.46 94.3442C109.784 92.8668 110.064 91.4764 110.082 91.2543C110.107 90.9603 109.478 90.7505 107.761 90.4796C105.828 90.1738 102.335 89.1764 100.099 88.2909C99.7583 88.156 99.4722 88.5111 98.9068 89.7714ZM122.454 89.5414C120.937 90.0812 116.341 90.9539 115.017 90.9539H114.249L114.043 93.6956C113.839 96.4196 114.019 101.492 114.363 102.704C114.673 103.792 119.535 103.068 124.75 101.156C127.405 100.183 127.357 100.37 126.034 96.1606C125.546 94.6082 125.073 92.3683 124.98 91.1652C124.788 88.6913 124.807 88.7046 122.454 89.5414ZM179.476 90.4614C180.166 91.1967 180.768 91.7985 180.813 91.7985C181.024 91.7985 180.801 91.5459 179.558 90.3796L178.221 89.1247L179.476 90.4614ZM78.4188 92.323C78.2065 92.6111 76.1893 95.049 73.9361 97.7405C70.0645 102.365 65.0164 108.673 64.5485 109.47C63.8817 110.608 76.3365 123.037 78.143 123.037C78.4745 123.037 82.838 114.062 84.6785 109.595C85.6187 107.314 86.9686 104.128 87.6788 102.514L88.9701 99.581L88.2929 99.1373C86.2816 97.8188 83.0641 95.282 81.3359 93.6513C79.1974 91.634 78.994 91.5414 78.4188 92.323ZM125.984 102.329C123.993 103.157 119.107 104.6 116.799 105.043C115.832 105.228 115.041 105.493 115.041 105.632C115.041 105.771 115.54 108.003 116.151 110.591C117.658 116.98 118.315 120.582 118.703 124.585C118.883 126.442 119.06 127.993 119.097 128.03C119.692 128.638 135.022 120.839 135.022 119.93C135.022 118.892 128.13 101.631 127.728 101.66C127.638 101.667 126.853 101.968 125.984 102.329ZM93.2701 108.335C91.575 115.574 90.2166 119.767 88.1752 124.061C86.3087 127.988 86.1461 127.647 90.4924 128.912C94.691 130.134 98.4232 130.632 103.399 130.634L107.658 130.636L107.83 129.861C108.17 128.335 108.36 117.715 108.155 111.745L107.945 105.659L106.357 105.472C104.133 105.211 97.9696 103.76 96.1537 103.069C95.3194 102.752 94.6368 102.496 94.6368 102.496C94.6368 102.496 94.0217 105.125 93.2701 108.335ZM60.9986 113.927C51.3234 125.851 30.7724 129.173 21.3287 120.339C19.6606 118.779 19.6374 118.884 20.7751 122.851C24.8082 136.92 31.8219 147.706 40.5633 153.281C42.5737 154.563 43.6779 154.519 48.3418 152.972C57.7427 149.856 67.5626 140.863 75.0728 128.495L76.8965 125.491L76.1981 125.041C75.1855 124.388 66.2841 115.918 64.4205 113.833C62.4992 111.686 62.8238 111.677 60.9986 113.927ZM132.911 124.056C129.635 126.077 124.546 128.629 121.496 129.781L119.086 130.692L118.747 134.116C117.521 146.478 110.216 160.13 99.3107 170.44C97.056 172.571 98.4246 171.914 109.975 165.319C124.446 157.056 133.258 150.387 135.198 146.23C137.493 141.311 137.94 131.977 136.245 124.374C135.739 122.107 136.028 122.135 132.911 124.056ZM83.3965 132.83C77.4304 142.574 66.2009 154.858 55.3013 163.563C53.2969 165.164 53.2343 164.981 56.2923 166.465C65.1878 170.785 80.8631 173.199 88.5825 171.438C94.133 170.172 102.726 154.087 106.396 138.094C107.591 132.886 107.593 133.203 106.374 133.355C105.205 133.501 86.8745 130.794 86.0535 130.354C85.2143 129.905 85.1528 129.963 83.3965 132.83Z" fill="black"/>
</svg>
